<svg width="183" height="34" viewBox="0 0 183 34" fill="none" xmlns="http://www.w3.org/2000/svg">
<path d="M17.5597 12.8885C15.8884 11.1503 13.749 10.2812 11.008 10.2812C9.26985 10.2812 7.5985 10.6823 5.99401 11.4845C4.45637 12.2868 3.1193 13.557 1.98279 15.362C0.846272 17.1671 0.378296 19.2396 0.378296 21.7132C0.378296 25.2564 1.51481 28.0643 3.72098 30.0699C5.92716 32.0755 8.33389 33.0783 11.008 33.0783C13.8159 33.0783 16.0221 32.1423 17.6266 30.2036V32.6772H23.6434V2.52612H17.6266V12.8885H17.5597ZM16.1558 25.8581C15.0861 26.9946 13.749 27.5963 12.1446 27.5963C10.4732 27.5963 9.06928 27.0615 7.93277 25.9249C6.79626 24.7884 6.26143 23.3845 6.26143 21.7132C6.26143 20.0418 6.79626 18.6379 7.93277 17.5014C9.06928 16.3649 10.4732 15.83 12.1446 15.83C13.749 15.83 15.0861 16.4317 16.1558 17.5682C17.2254 18.7047 17.7603 20.1087 17.7603 21.7132C17.7603 23.3176 17.2254 24.6547 16.1558 25.8581Z" fill="#0E3163"/>
<path d="M26.3843 8.54292L32.4011 6.87157V0.854736L26.3843 2.52608V8.54292Z" fill="#0E3163"/>
<path d="M32.4011 10.6824H26.3843V32.6104H32.4011V10.6824Z" fill="#0E3163"/>
<path d="M41.0252 14.2925V10.6824H35.0752V32.6104H41.092V22.3149C41.092 20.3093 41.4263 18.8385 42.1617 17.9026C42.8971 16.9666 44.0336 16.5655 45.7049 16.5655H48.1785V10.7492H47.1089C44.2342 10.6824 42.1617 11.8857 41.0252 14.2925Z" fill="#0E3163"/>
<path d="M60.0785 10.2812C56.9364 10.2812 54.1953 11.4178 51.9892 13.6239C49.783 15.8301 48.6465 18.5711 48.6465 21.7132C48.6465 24.9222 49.7161 27.6632 51.9223 29.8694C54.1285 32.0756 56.8695 33.1452 60.2122 33.1452C62.5521 33.1452 64.6245 32.6104 66.3627 31.5407C68.1009 30.4711 69.5049 29.0672 70.4408 27.2621L65.6273 24.3874C65.1594 25.4571 64.424 26.2593 63.4212 26.861C62.4852 27.4627 61.4156 27.7969 60.2122 27.7969C58.6746 27.7969 57.4043 27.4627 56.4015 26.7273C55.3987 25.9919 54.7302 25.0559 54.3959 23.7857H71.3768V21.5795C71.3768 18.3706 70.3071 15.6295 68.1678 13.4902C66.0953 11.3509 63.3543 10.2812 60.0785 10.2812ZM54.6633 19.0391C55.1313 17.9694 55.8667 17.1672 56.8026 16.4986C57.7386 15.897 58.8751 15.5627 60.0785 15.5627C62.7526 15.5627 64.4908 16.6992 65.2931 19.0391H54.6633Z" fill="#0E3163"/>
<path d="M84.2129 15.9638C85.3494 15.9638 86.4191 16.298 87.355 16.8997C88.291 17.5683 88.9595 18.3705 89.4275 19.4402L94.7758 17.1671C93.9067 15.0278 92.5027 13.3565 90.6977 12.0863C88.8258 10.816 86.6865 10.2144 84.2129 10.2144C81.0707 10.2144 78.3966 11.3509 76.1236 13.557C73.9174 15.7632 72.7809 18.5042 72.7809 21.6463C72.7809 24.7885 73.9174 27.5295 76.1236 29.7357C78.3297 31.9418 81.0039 33.0783 84.2129 33.0783C86.6865 33.0783 88.8258 32.4767 90.6977 31.2064C92.5696 29.9362 93.9067 28.2649 94.7758 26.1255L89.4275 23.8525C89.0263 24.9222 88.3578 25.7244 87.355 26.393C86.4191 27.0615 85.3494 27.3289 84.2129 27.3289C82.6084 27.3289 81.2713 26.7941 80.2017 25.6576C79.132 24.5211 78.5972 23.184 78.5972 21.6463C78.5972 20.0419 79.132 18.7048 80.2017 17.6351C81.2713 16.5655 82.6752 15.9638 84.2129 15.9638Z" fill="#0E3163"/>
<path d="M102.397 3.93018L96.3805 5.60152C96.3805 13.7577 96.3805 13.9582 96.3805 23.1841C96.3805 26.7273 97.049 29.2678 98.3861 30.6048C99.7232 32.0088 102.13 32.6773 105.606 32.6773H106.475V27.0616C104.67 27.0616 103.534 26.861 103.066 26.393C102.598 25.9251 102.33 24.8554 102.33 23.1172V16.0976H106.475V10.6824H102.33V3.93018H102.397Z" fill="#0E3163"/>
<path d="M119.645 10.2812C117.84 10.2812 116.236 10.6824 114.765 11.5515C113.361 12.3537 112.225 13.4902 111.489 14.8942V10.7492H109.083V32.6773H111.556V20.443C111.556 18.2368 112.291 16.3649 113.829 14.8273C115.3 13.2897 117.172 12.5543 119.378 12.5543C121.718 12.5543 123.59 13.2897 124.927 14.6936C126.264 16.0975 126.932 18.0363 126.932 20.3762V32.6773H129.406V20.3762C129.406 17.234 128.537 14.7605 126.799 12.9554C124.927 11.1503 122.587 10.2812 119.645 10.2812Z" fill="#0E3163"/>
<path d="M134.487 10.6824H132.013V32.6104H134.487V10.6824Z" fill="#0E3163"/>
<path d="M147.991 10.2812C146.186 10.2812 144.582 10.6824 143.111 11.5515C141.707 12.3537 140.57 13.4902 139.835 14.8942V10.7492H137.428V32.6773H139.902V20.443C139.902 18.2368 140.637 16.3649 142.108 14.8273C143.579 13.2897 145.451 12.5543 147.657 12.5543C149.997 12.5543 151.869 13.2897 153.206 14.6936C154.543 16.0975 155.211 18.0363 155.211 20.3762V32.6773H157.685V20.3762C157.685 17.234 156.816 14.7605 155.078 12.9554C153.34 11.1503 150.933 10.2812 147.991 10.2812Z" fill="#0E3163"/>
<path d="M182.622 21.4458C182.622 18.17 181.552 15.4958 179.413 13.4234C177.273 11.3509 174.599 10.2812 171.39 10.2812C168.114 10.2812 165.44 11.4178 163.234 13.6239C161.095 15.8301 159.958 18.5711 159.958 21.8469C159.958 25.1228 161.028 27.7969 163.1 29.9363C165.24 32.0756 167.981 33.1452 171.457 33.1452C176.337 33.1452 179.814 30.9391 181.886 26.4599L179.68 25.3902C178.076 29.0672 175.335 30.8722 171.39 30.8722C168.783 30.8722 166.71 30.07 165.039 28.5323C163.368 26.9947 162.432 24.9891 162.298 22.5155H182.555V21.4458H182.622ZM162.499 20.2425C162.833 17.9694 163.836 16.1644 165.507 14.6936C167.178 13.2228 169.117 12.4874 171.39 12.4874C173.797 12.4874 175.803 13.2228 177.34 14.6267C178.878 16.0307 179.814 17.9026 180.014 20.2425H162.499Z" fill="#0E3163"/>
<path d="M132.013 7.9414L134.554 7.27286V4.73242L132.013 5.46781V7.9414Z" fill="#0E3163"/>
</svg>
