<svg width="183" height="66" viewBox="0 0 183 66" fill="none" xmlns="http://www.w3.org/2000/svg">
<g clip-path="url(#clip0_2584_730)">
<path d="M17.1814 28.8885C15.5101 27.1503 13.3708 26.2812 10.6297 26.2812C8.89155 26.2812 7.22021 26.6823 5.61572 27.4845C4.07808 28.2868 2.741 29.557 1.60449 31.362C0.467976 33.1671 0 35.2396 0 37.7132C0 41.2564 1.13651 44.0643 3.34269 46.0699C5.54886 48.0755 7.9556 49.0783 10.6297 49.0783C13.4376 49.0783 15.6438 48.1423 17.2483 46.2036V48.6772H23.2651V18.5261H17.2483V28.8885H17.1814ZM15.7775 41.8581C14.7078 42.9946 13.3708 43.5963 11.7663 43.5963C10.0949 43.5963 8.69099 43.0615 7.55447 41.9249C6.41796 40.7884 5.88313 39.3845 5.88313 37.7132C5.88313 36.0418 6.41796 34.6379 7.55447 33.5014C8.69099 32.3649 10.0949 31.83 11.7663 31.83C13.3708 31.83 14.7078 32.4317 15.7775 33.5682C16.8471 34.7047 17.382 36.1087 17.382 37.7132C17.382 39.3176 16.8471 40.6547 15.7775 41.8581Z" fill="#0E3163"/>
<path d="M26.0061 24.5429L32.0229 22.8716V16.8547L26.0061 18.5261V24.5429Z" fill="#0E3163"/>
<path d="M32.0229 26.6824H26.0061V48.6104H32.0229V26.6824Z" fill="#0E3163"/>
<path d="M40.6468 30.2925V26.6824H34.6968V48.6104H40.7136V38.3149C40.7136 36.3093 41.0479 34.8385 41.7833 33.9026C42.5187 32.9666 43.6552 32.5655 45.3265 32.5655H47.8001V26.7492H46.7305C43.8557 26.6824 41.7833 27.8857 40.6468 30.2925Z" fill="#0E3163"/>
<path d="M59.7003 26.2812C56.5582 26.2812 53.8172 27.4178 51.611 29.6239C49.4048 31.8301 48.2683 34.5711 48.2683 37.7132C48.2683 40.9222 49.338 43.6632 51.5441 45.8694C53.7503 48.0756 56.4913 49.1452 59.834 49.1452C62.1739 49.1452 64.2464 48.6104 65.9846 47.5407C67.7228 46.4711 69.1267 45.0672 70.0626 43.2621L65.2492 40.3874C64.7812 41.4571 64.0458 42.2593 63.043 42.861C62.107 43.4627 61.0374 43.7969 59.834 43.7969C58.2964 43.7969 57.0262 43.4627 56.0234 42.7273C55.0205 41.9919 54.352 41.0559 54.0177 39.7857H70.9986V37.5795C70.9986 34.3706 69.9289 31.6295 67.7896 29.4902C65.7171 27.3509 62.9761 26.2812 59.7003 26.2812ZM54.2851 35.0391C54.7531 33.9694 55.4885 33.1672 56.4245 32.4986C57.3604 31.897 58.4969 31.5627 59.7003 31.5627C62.3745 31.5627 64.1127 32.6992 64.9149 35.0391H54.2851Z" fill="#0E3163"/>
<path d="M83.8346 31.9638C84.9711 31.9638 86.0408 32.298 86.9767 32.8997C87.9127 33.5683 88.5812 34.3705 89.0492 35.4402L94.3975 33.1671C93.5284 31.0278 92.1244 29.3565 90.3194 28.0863C88.4475 26.816 86.3082 26.2144 83.8346 26.2144C80.6925 26.2144 78.0183 27.3509 75.7453 29.557C73.5391 31.7632 72.4026 34.5042 72.4026 37.6463C72.4026 40.7885 73.5391 43.5295 75.7453 45.7357C77.9514 47.9418 80.6256 49.0783 83.8346 49.0783C86.3082 49.0783 88.4475 48.4767 90.3194 47.2064C92.1913 45.9362 93.5284 44.2649 94.3975 42.1255L89.0492 39.8525C88.648 40.9222 87.9795 41.7244 86.9767 42.393C86.0408 43.0615 84.9711 43.3289 83.8346 43.3289C82.2301 43.3289 80.893 42.7941 79.8234 41.6576C78.7537 40.5211 78.2189 39.184 78.2189 37.6463C78.2189 36.0419 78.7537 34.7048 79.8234 33.6351C80.893 32.5655 82.2969 31.9638 83.8346 31.9638Z" fill="#0E3163"/>
<path d="M102.019 19.9302L96.0022 21.6015C96.0022 29.7577 96.0022 29.9582 96.0022 39.1841C96.0022 42.7273 96.6707 45.2677 98.0078 46.6048C99.3449 48.0088 101.752 48.6773 105.228 48.6773H106.097V43.0616C104.292 43.0616 103.156 42.861 102.688 42.393C102.22 41.9251 101.952 40.8554 101.952 39.1172V32.0976H106.097V26.6824H101.952V19.9302H102.019Z" fill="#0E3163"/>
<path d="M119.267 26.2812C117.462 26.2812 115.858 26.6824 114.387 27.5515C112.983 28.3537 111.846 29.4902 111.111 30.8942V26.7492H108.704V48.6773H111.178V36.443C111.178 34.2368 111.913 32.3649 113.451 30.8273C114.922 29.2897 116.794 28.5543 119 28.5543C121.34 28.5543 123.212 29.2897 124.549 30.6936C125.886 32.0975 126.554 34.0363 126.554 36.3762V48.6773H129.028V36.3762C129.028 33.234 128.159 30.7605 126.421 28.9554C124.549 27.1503 122.209 26.2812 119.267 26.2812Z" fill="#0E3163"/>
<path d="M134.108 26.6824H131.635V48.6104H134.108V26.6824Z" fill="#0E3163"/>
<path d="M147.613 26.2812C145.808 26.2812 144.203 26.6824 142.733 27.5515C141.329 28.3537 140.192 29.4902 139.457 30.8942V26.7492H137.05V48.6773H139.524V36.443C139.524 34.2368 140.259 32.3649 141.73 30.8273C143.201 29.2897 145.073 28.5543 147.279 28.5543C149.619 28.5543 151.49 29.2897 152.828 30.6936C154.165 32.0975 154.833 34.0363 154.833 36.3762V48.6773H157.307V36.3762C157.307 33.234 156.438 30.7605 154.699 28.9554C152.961 27.1503 150.555 26.2812 147.613 26.2812Z" fill="#0E3163"/>
<path d="M182.243 37.4458C182.243 34.17 181.174 31.4958 179.034 29.4234C176.895 27.3509 174.221 26.2812 171.012 26.2812C167.736 26.2812 165.062 27.4178 162.856 29.6239C160.716 31.8301 159.58 34.5711 159.58 37.8469C159.58 41.1228 160.649 43.7969 162.722 45.9363C164.861 48.0756 167.602 49.1452 171.079 49.1452C175.959 49.1452 179.435 46.9391 181.508 42.4599L179.302 41.3902C177.697 45.0672 174.956 46.8722 171.012 46.8722C168.405 46.8722 166.332 46.07 164.661 44.5323C162.989 42.9947 162.053 40.9891 161.92 38.5155H182.176V37.4458H182.243ZM162.12 36.2425C162.455 33.9694 163.457 32.1644 165.129 30.6936C166.8 29.2228 168.739 28.4874 171.012 28.4874C173.419 28.4874 175.424 29.2228 176.962 30.6267C178.499 32.0307 179.435 33.9026 179.636 36.2425H162.12Z" fill="#0E3163"/>
<path d="M131.635 23.9414L134.175 23.2729V20.7324L131.635 21.4678V23.9414Z" fill="#0E3163"/>
</g>
<defs>
<clipPath id="clip0_2584_730">
<rect width="182.243" height="64.2905" fill="white" transform="translate(0 0.854736)"/>
</clipPath>
</defs>
</svg>
