<svg width="169" height="60" viewBox="0 0 169 60" fill="none" xmlns="http://www.w3.org/2000/svg">
<g clip-path="url(#clip0_8404_308)">
<path d="M24.0473 26.6384C22.6809 25.2173 20.9318 24.5067 18.6908 24.5067C17.2696 24.5067 15.9032 24.8346 14.5913 25.4905C13.3342 26.1465 12.241 27.185 11.3118 28.6608C10.3826 30.1365 10 31.831 10 33.8534C10 36.7503 10.9292 39.0459 12.7329 40.6857C14.5367 42.3255 16.5044 43.1454 18.6908 43.1454C20.9864 43.1454 22.7902 42.3801 24.102 40.795V42.8174H29.0213V18.1663H24.102V26.6384H24.0473ZM22.8995 37.2422C22.0249 38.1714 20.9318 38.6633 19.62 38.6633C18.2535 38.6633 17.1057 38.2261 16.1764 37.2969C15.2472 36.3677 14.81 35.2198 14.81 33.8534C14.81 32.4869 15.2472 31.339 16.1764 30.4098C17.1057 29.4806 18.2535 29.0434 19.62 29.0434C20.9318 29.0434 22.0249 29.5353 22.8995 30.4645C23.774 31.3937 24.2113 32.5415 24.2113 33.8534C24.2113 35.1652 23.774 36.2583 22.8995 37.2422Z" fill="#0E3163"/>
<path d="M31.2622 23.0856L36.1815 21.7191V16.7998L31.2622 18.1663V23.0856Z" fill="#0E3163"/>
<path d="M36.1815 24.8347H31.2622V42.7628H36.1815V24.8347Z" fill="#0E3163"/>
<path d="M43.2324 27.7863V24.8347H38.3678V42.7628H43.2871V34.3454C43.2871 32.7056 43.5604 31.5031 44.1616 30.7379C44.7629 29.9726 45.6921 29.6447 47.0586 29.6447H49.0809V24.8894H48.2064C45.8561 24.8347 44.1616 25.8186 43.2324 27.7863Z" fill="#0E3163"/>
<path d="M58.8102 24.5068C56.2412 24.5068 54.0002 25.436 52.1964 27.2398C50.3927 29.0435 49.4635 31.2845 49.4635 33.8535C49.4635 36.4771 50.338 38.7181 52.1418 40.5219C53.9455 42.3256 56.1865 43.2002 58.9195 43.2002C60.8325 43.2002 62.527 42.7629 63.9481 41.8883C65.3692 41.0138 66.5171 39.866 67.2823 38.3902L63.3468 36.0399C62.9642 36.9144 62.363 37.5703 61.5431 38.0622C60.7779 38.5542 59.9033 38.8275 58.9195 38.8275C57.6623 38.8275 56.6238 38.5542 55.8039 37.9529C54.984 37.3517 54.4375 36.5864 54.1642 35.5479H68.0475V33.7442C68.0475 31.1206 67.173 28.8795 65.4239 27.1305C63.7295 25.3814 61.4885 24.5068 58.8102 24.5068ZM54.3828 31.6671C54.7654 30.7926 55.3667 30.1367 56.1319 29.5901C56.8971 29.0982 57.8263 28.8249 58.8102 28.8249C60.9965 28.8249 62.4176 29.7541 63.0736 31.6671H54.3828Z" fill="#0E3163"/>
<path d="M78.5422 29.1528C79.4714 29.1528 80.346 29.4261 81.1112 29.918C81.8764 30.4646 82.423 31.1205 82.8056 31.9951L87.1783 30.1367C86.4678 28.3876 85.3199 27.0211 83.8441 25.9826C82.3137 24.9441 80.5646 24.4521 78.5422 24.4521C75.9733 24.4521 73.7869 25.3813 71.9285 27.1851C70.1248 28.9888 69.1956 31.2298 69.1956 33.7988C69.1956 36.3678 70.1248 38.6088 71.9285 40.4125C73.7322 42.2163 75.9186 43.1455 78.5422 43.1455C80.5646 43.1455 82.3137 42.6535 83.8441 41.615C85.3746 40.5765 86.4678 39.21 87.1783 37.461L82.8056 35.6026C82.4777 36.4771 81.9311 37.133 81.1112 37.6796C80.346 38.2262 79.4714 38.4448 78.5422 38.4448C77.2304 38.4448 76.1372 38.0075 75.2627 37.0783C74.3881 36.1491 73.9509 35.056 73.9509 33.7988C73.9509 32.487 74.3881 31.3938 75.2627 30.5193C76.1372 29.6447 77.2851 29.1528 78.5422 29.1528Z" fill="#0E3163"/>
<path d="M93.4095 19.3142L88.4902 20.6807C88.4902 27.3491 88.4902 27.513 88.4902 35.056C88.4902 37.9529 89.0368 40.0299 90.13 41.1231C91.2232 42.2709 93.1909 42.8175 96.0332 42.8175H96.7437V38.2262C95.2679 38.2262 94.3387 38.0622 93.9561 37.6796C93.5735 37.297 93.3549 36.4224 93.3549 35.0013V29.2621H96.7437V24.8348H93.3549V19.3142H93.4095Z" fill="#0E3163"/>
<path d="M107.511 24.5068C106.036 24.5068 104.724 24.8348 103.521 25.5454C102.373 26.2013 101.444 27.1305 100.843 28.2783V24.8894H98.8752V42.8176H100.898V32.815C100.898 31.0112 101.499 29.4808 102.756 28.2236C103.959 26.9665 105.489 26.3652 107.293 26.3652C109.206 26.3652 110.736 26.9665 111.829 28.1143C112.923 29.2622 113.469 30.8473 113.469 32.7603V42.8176H115.492V32.7603C115.492 30.1914 114.781 28.169 113.36 26.6932C111.829 25.2174 109.916 24.5068 107.511 24.5068Z" fill="#0E3163"/>
<path d="M119.645 24.8347H117.623V42.7628H119.645V24.8347Z" fill="#0E3163"/>
<path d="M130.687 24.5068C129.211 24.5068 127.899 24.8348 126.697 25.5454C125.549 26.2013 124.62 27.1305 124.018 28.2783V24.8894H122.051V42.8176H124.073V32.815C124.073 31.0112 124.674 29.4808 125.877 28.2236C127.079 26.9665 128.61 26.3652 130.413 26.3652C132.326 26.3652 133.857 26.9665 134.95 28.1143C136.043 29.2622 136.59 30.8473 136.59 32.7603V42.8176H138.612V32.7603C138.612 30.1914 137.902 28.169 136.48 26.6932C135.059 25.2174 133.092 24.5068 130.687 24.5068Z" fill="#0E3163"/>
<path d="M159 33.6349C159 30.9566 158.126 28.7702 156.376 27.0758C154.627 25.3814 152.441 24.5068 149.817 24.5068C147.139 24.5068 144.953 25.436 143.149 27.2398C141.4 29.0435 140.471 31.2845 140.471 33.9628C140.471 36.6411 141.345 38.8275 143.04 40.5765C144.789 42.3256 147.03 43.2002 149.872 43.2002C153.862 43.2002 156.704 41.3964 158.399 37.7343L156.595 36.8597C155.283 39.866 153.042 41.3418 149.817 41.3418C147.686 41.3418 145.991 40.6859 144.625 39.4287C143.258 38.1715 142.493 36.5318 142.384 34.5094H158.945V33.6349H159ZM142.548 32.651C142.821 30.7926 143.641 29.3168 145.007 28.1143C146.374 26.9118 147.959 26.3106 149.817 26.3106C151.785 26.3106 153.425 26.9118 154.682 28.0597C155.939 29.2075 156.704 30.7379 156.868 32.651H142.548Z" fill="#0E3163"/>
<path d="M117.623 22.5938L119.7 22.0473V19.9702L117.623 20.5715V22.5938Z" fill="#0E3163"/>
</g>
<defs>
<clipPath id="clip0_8404_308">
<rect width="149" height="58.4003" fill="white" transform="translate(10 0.799805)"/>
</clipPath>
</defs>
</svg>
