<svg width="204" height="65" viewBox="0 0 204 65" fill="none" xmlns="http://www.w3.org/2000/svg">
<g clip-path="url(#clip0_8404_162)">
<path d="M28.0598 28.3885C26.3885 26.6503 24.2492 25.7812 21.5082 25.7812C19.77 25.7812 18.0986 26.1823 16.4941 26.9846C14.9565 27.7868 13.6194 29.0571 12.4829 30.8621C11.3464 32.6672 10.8784 34.7396 10.8784 37.2132C10.8784 40.7565 12.0149 43.5643 14.2211 45.5699C16.4273 47.5755 18.834 48.5784 21.5082 48.5784C24.316 48.5784 26.5222 47.6424 28.1267 45.7036V48.1772H34.1435V18.0262H28.1267V28.3885H28.0598ZM26.6559 41.3581C25.5862 42.4947 24.2492 43.0963 22.6447 43.0963C20.9733 43.0963 19.5694 42.5615 18.4329 41.425C17.2964 40.2885 16.7615 38.8846 16.7615 37.2132C16.7615 35.5419 17.2964 34.1379 18.4329 33.0014C19.5694 31.8649 20.9733 31.3301 22.6447 31.3301C24.2492 31.3301 25.5862 31.9318 26.6559 33.0683C27.7256 34.2048 28.2604 35.6087 28.2604 37.2132C28.2604 38.8177 27.7256 40.1548 26.6559 41.3581Z" fill="#0E3163"/>
<path d="M36.8845 24.0429L42.9014 22.3716V16.3547L36.8845 18.0261V24.0429Z" fill="#0E3163"/>
<path d="M42.9014 26.1823H36.8845V48.1103H42.9014V26.1823Z" fill="#0E3163"/>
<path d="M51.5252 29.7924V26.1823H45.5752V48.1103H51.592V37.8149C51.592 35.8093 51.9263 34.3385 52.6617 33.4025C53.3971 32.4666 54.5336 32.0654 56.2049 32.0654H58.6785V26.2492H57.6089C54.7342 26.1823 52.6617 27.3857 51.5252 29.7924Z" fill="#0E3163"/>
<path d="M70.5787 25.7812C67.4366 25.7812 64.6956 26.9178 62.4894 29.1239C60.2832 31.3301 59.1467 34.0711 59.1467 37.2132C59.1467 40.4222 60.2164 43.1632 62.4226 45.3694C64.6287 47.5756 67.3697 48.6452 70.7124 48.6452C73.0523 48.6452 75.1248 48.1104 76.863 47.0407C78.6012 45.9711 80.0051 44.5672 80.9411 42.7621L76.1276 39.8874C75.6596 40.9571 74.9242 41.7593 73.9214 42.361C72.9855 42.9627 71.9158 43.2969 70.7124 43.2969C69.1748 43.2969 67.9046 42.9627 66.9018 42.2273C65.899 41.4919 65.2304 40.5559 64.8962 39.2857H81.877V37.0795C81.877 33.8706 80.8074 31.1295 78.668 28.9902C76.5956 26.8509 73.8546 25.7812 70.5787 25.7812ZM65.1636 34.5391C65.6315 33.4694 66.3669 32.6672 67.3029 31.9986C68.2388 31.397 69.3754 31.0627 70.5787 31.0627C73.2529 31.0627 74.9911 32.1992 75.7933 34.5391H65.1636Z" fill="#0E3163"/>
<path d="M94.713 31.4637C95.8495 31.4637 96.9192 31.7979 97.8551 32.3996C98.7911 33.0681 99.4596 33.8704 99.9276 34.9401L105.276 32.667C104.407 30.5277 103.003 28.8564 101.198 27.5861C99.3259 26.3159 97.1866 25.7142 94.713 25.7142C91.5709 25.7142 88.8967 26.8507 86.6237 29.0569C84.4175 31.2631 83.281 34.0041 83.281 37.1462C83.281 40.2884 84.4175 43.0294 86.6237 45.2355C88.8299 47.4417 91.504 48.5782 94.713 48.5782C97.1866 48.5782 99.3259 47.9765 101.198 46.7063C103.07 45.4361 104.407 43.7647 105.276 41.6254L99.9276 39.3524C99.5265 40.4221 98.8579 41.2243 97.8551 41.8928C96.9192 42.5614 95.8495 42.8288 94.713 42.8288C93.1085 42.8288 91.7714 42.294 90.7018 41.1574C89.6321 40.0209 89.0973 38.6839 89.0973 37.1462C89.0973 35.5417 89.6321 34.2047 90.7018 33.135C91.7714 32.0653 93.1754 31.4637 94.713 31.4637Z" fill="#0E3163"/>
<path d="M112.897 19.4302L106.881 21.1016C106.881 29.2577 106.881 29.4583 106.881 38.6841C106.881 42.2274 107.549 44.7678 108.886 46.1049C110.223 47.5088 112.63 48.1774 116.106 48.1774H116.976V42.5616C115.17 42.5616 114.034 42.3611 113.566 41.8931C113.098 41.4251 112.831 40.3555 112.831 38.6173V31.5976H116.976V26.1825H112.831V19.4302H112.897Z" fill="#0E3163"/>
<path d="M130.146 25.7812C128.341 25.7812 126.736 26.1824 125.265 27.0515C123.861 27.8537 122.725 28.9902 121.989 30.3942V26.2492H119.583V48.1773H122.056V35.943C122.056 33.7368 122.792 31.8649 124.329 30.3273C125.8 28.7897 127.672 28.0543 129.878 28.0543C132.218 28.0543 134.09 28.7897 135.427 30.1936C136.764 31.5975 137.433 33.5363 137.433 35.8762V48.1773H139.906V35.8762C139.906 32.734 139.037 30.2605 137.299 28.4554C135.427 26.6503 133.087 25.7812 130.146 25.7812Z" fill="#0E3163"/>
<path d="M144.987 26.1823H142.513V48.1103H144.987V26.1823Z" fill="#0E3163"/>
<path d="M158.491 25.7812C156.686 25.7812 155.082 26.1824 153.611 27.0515C152.207 27.8537 151.071 28.9902 150.335 30.3942V26.2492H147.928V48.1773H150.402V35.943C150.402 33.7368 151.137 31.8649 152.608 30.3273C154.079 28.7897 155.951 28.0543 158.157 28.0543C160.497 28.0543 162.369 28.7897 163.706 30.1936C165.043 31.5975 165.712 33.5363 165.712 35.8762V48.1773H168.185V35.8762C168.185 32.734 167.316 30.2605 165.578 28.4554C163.84 26.6503 161.433 25.7812 158.491 25.7812Z" fill="#0E3163"/>
<path d="M193.122 36.9458C193.122 33.67 192.052 30.9958 189.913 28.9234C187.773 26.8509 185.099 25.7812 181.89 25.7812C178.614 25.7812 175.94 26.9178 173.734 29.1239C171.595 31.3301 170.458 34.0711 170.458 37.3469C170.458 40.6228 171.528 43.2969 173.6 45.4363C175.74 47.5756 178.481 48.6452 181.957 48.6452C186.837 48.6452 190.314 46.4391 192.386 41.9599L190.18 40.8902C188.576 44.5672 185.835 46.3722 181.89 46.3722C179.283 46.3722 177.21 45.57 175.539 44.0323C173.868 42.4947 172.932 40.4891 172.798 38.0155H193.055V36.9458H193.122ZM172.999 35.7425C173.333 33.4694 174.336 31.6644 176.007 30.1936C177.678 28.7228 179.617 27.9874 181.89 27.9874C184.297 27.9874 186.303 28.7228 187.84 30.1267C189.378 31.5307 190.314 33.4026 190.514 35.7425H172.999Z" fill="#0E3163"/>
<path d="M142.513 23.4413L145.054 22.7728V20.2324L142.513 20.9678V23.4413Z" fill="#0E3163"/>
</g>
<defs>
<clipPath id="clip0_8404_162">
<rect width="182.243" height="64.2905" fill="white" transform="translate(10.8784 0.354736)"/>
</clipPath>
</defs>
</svg>
